# xmcd
#
# Track frame offsets:
#	150
#	18508
#	37297
#	59687
#
# Disc length: 994 seconds
#
# Revision: 2
# Processed by: cddbd v1.5.2PL0 Copyright (c) Steve Scherf et al.
# Submitted via: EZCDDA 4.3.2
#
DISCID=3703e004
DTITLE=Tarja Turunen - Die Alive (Maxi)
DYEAR=1900
DGENRE=
TTITLE0=Die Alive
TTITLE1=Die Alive (Alternative Version)
TTITLE2=Lost Northern Star
TTITLE3=Calling Grace
EXTD=
EXTT0=
EXTT1=
EXTT2=
EXTT3=
PLAYORDER=
